<svg xmlns="http://www.w3.org/2000/svg" width="1000" height="580" viewBox="0 0 1000 580"><rect width="100%" height="100%" fill="#faf8f3"/><text x="48" y="52" font-family="sans-serif" font-size="25" font-weight="700" fill="#172121">Figure 3 — Retained jump gain by family</text><line x1="75" y1="485" x2="935" y2="485" stroke="#172121"/><rect x="96.5" y="225.0" width="64.5" height="260.0" rx="4" fill="#7a4eab"/><text x="128.8" y="217.0" text-anchor="middle" font-family="sans-serif" font-size="15">3.333</text><text x="128.8" y="513" text-anchor="middle" font-family="sans-serif" font-size="13">latent commo</text><rect x="204.0" y="340.6" width="64.5" height="144.4" rx="4" fill="#7a4eab"/><text x="236.2" y="332.6" text-anchor="middle" font-family="sans-serif" font-size="15">1.852</text><text x="236.2" y="513" text-anchor="middle" font-family="sans-serif" font-size="13">unification</text><rect x="311.5" y="95.0" width="64.5" height="390.0" rx="4" fill="#7a4eab"/><text x="343.8" y="87.0" text-anchor="middle" font-family="sans-serif" font-size="15">5.000</text><text x="343.8" y="513" text-anchor="middle" font-family="sans-serif" font-size="13">hidden regim</text><rect x="419.0" y="241.2" width="64.5" height="243.8" rx="4" fill="#7a4eab"/><text x="451.2" y="233.2" text-anchor="middle" font-family="sans-serif" font-size="15">3.125</text><text x="451.2" y="513" text-anchor="middle" font-family="sans-serif" font-size="13">property to </text><rect x="526.5" y="241.2" width="64.5" height="243.8" rx="4" fill="#7a4eab"/><text x="558.8" y="233.2" text-anchor="middle" font-family="sans-serif" font-size="15">3.125</text><text x="558.8" y="513" text-anchor="middle" font-family="sans-serif" font-size="13">state invent</text><rect x="634.0" y="268.3" width="64.5" height="216.7" rx="4" fill="#7a4eab"/><text x="666.2" y="260.3" text-anchor="middle" font-family="sans-serif" font-size="15">2.778</text><text x="666.2" y="513" text-anchor="middle" font-family="sans-serif" font-size="13">coordinate t</text><rect x="741.5" y="225.0" width="64.5" height="260.0" rx="4" fill="#7a4eab"/><text x="773.8" y="217.0" text-anchor="middle" font-family="sans-serif" font-size="15">3.333</text><text x="773.8" y="513" text-anchor="middle" font-family="sans-serif" font-size="13">causal ambig</text><rect x="849.0" y="206.4" width="64.5" height="278.6" rx="4" fill="#7a4eab"/><text x="881.2" y="198.4" text-anchor="middle" font-family="sans-serif" font-size="15">3.571</text><text x="881.2" y="513" text-anchor="middle" font-family="sans-serif" font-size="13">meta law</text></svg>
